<svg xmlns="http://www.w3.org/2000/svg" width="215" height="233" viewBox="0 0 215 233" fill="none"><path d="M197.614 151.207C198.946 154.797 200.22 158.474 201.349 162.179C201.638 163.106 202.507 163.656 203.433 163.569C203.549 163.569 203.694 163.54 203.809 163.482C204.852 163.164 205.431 162.063 205.112 161.021C203.954 157.258 202.68 153.494 201.291 149.818C200.914 148.804 199.785 148.283 198.743 148.66C197.73 149.036 197.209 150.165 197.585 151.207H197.614Z" fill="url(#paint0_linear_887_28805)"></path><path d="M204.417 173.354C205.315 177.06 206.125 180.881 206.849 184.702C207.052 185.716 207.978 186.41 208.991 186.295C209.049 186.295 209.107 186.295 209.136 186.295C210.207 186.092 210.902 185.079 210.728 184.008C210.004 180.128 209.165 176.22 208.267 172.456C208.007 171.385 206.936 170.748 205.894 171.009C204.822 171.269 204.186 172.341 204.446 173.383L204.417 173.354Z" fill="url(#paint1_linear_887_28805)"></path><path d="M212.755 232.876C213.739 232.76 214.492 231.949 214.521 230.936C214.579 226.97 214.55 223.004 214.434 219.124C214.405 218.024 213.479 217.185 212.407 217.214C211.307 217.243 210.468 218.169 210.497 219.24C210.612 223.062 210.641 226.97 210.584 230.849C210.584 231.949 211.423 232.847 212.523 232.847C212.61 232.847 212.697 232.847 212.755 232.847V232.876Z" fill="url(#paint2_linear_887_28805)"></path><path d="M210.352 193.909C209.281 194.053 208.499 195.038 208.644 196.109C208.875 197.904 209.078 199.699 209.281 201.465C209.483 203.52 209.686 205.605 209.86 207.66C209.946 208.76 210.902 209.571 211.973 209.484C211.973 209.484 212.002 209.484 212.031 209.484C213.102 209.368 213.884 208.442 213.797 207.371C213.623 205.257 213.449 203.144 213.218 201.059C213.015 199.264 212.813 197.412 212.581 195.617C212.436 194.546 211.481 193.793 210.41 193.909C210.41 193.909 210.381 193.909 210.352 193.909Z" fill="url(#paint3_linear_887_28805)"></path><path d="M193.213 140.495C193.561 141.306 194.4 141.74 195.211 141.653C195.414 141.653 195.616 141.566 195.819 141.48C196.803 141.045 197.266 139.858 196.803 138.874C195.182 135.284 193.445 131.694 191.621 128.22C191.1 127.265 189.913 126.889 188.958 127.381C188.002 127.902 187.626 129.089 188.118 130.044C189.913 133.431 191.592 136.934 193.185 140.466L193.213 140.495Z" fill="url(#paint4_linear_887_28805)"></path><path d="M106.653 50.1999C110.04 51.9369 113.456 53.8187 116.814 55.7873C117.19 56.0189 117.625 56.1058 118.03 56.0479C118.638 55.99 119.188 55.6426 119.535 55.0925C120.085 54.1661 119.767 52.9502 118.841 52.4001C115.424 50.3736 111.922 48.4629 108.476 46.6969C107.521 46.2048 106.305 46.5812 105.813 47.5655C105.321 48.5208 105.697 49.7078 106.682 50.2289L106.653 50.1999Z" fill="url(#paint5_linear_887_28805)"></path><path d="M136.008 68.7579C136.413 69.0763 136.934 69.1921 137.397 69.1632C137.918 69.1053 138.411 68.8447 138.758 68.4105C139.424 67.542 139.25 66.2971 138.382 65.6602C135.255 63.2863 132.013 60.9413 128.77 58.7701C127.873 58.1621 126.657 58.3937 126.02 59.2912C125.412 60.1886 125.644 61.4045 126.541 62.0415C129.726 64.1838 132.91 66.4708 135.95 68.8158L136.008 68.7579Z" fill="url(#paint6_linear_887_28805)"></path><path d="M153.581 83.8978C154.015 84.332 154.594 84.5057 155.173 84.4478C155.607 84.3899 156.041 84.2162 156.389 83.8688C157.141 83.0872 157.141 81.8423 156.36 81.0896C153.552 78.3683 150.628 75.6759 147.646 73.0994C146.835 72.3756 145.561 72.4914 144.867 73.302C144.143 74.1126 144.259 75.3864 145.069 76.0812C147.993 78.5999 150.859 81.2344 153.61 83.8978H153.581Z" fill="url(#paint7_linear_887_28805)"></path><path d="M169.156 101.037C169.591 101.587 170.256 101.848 170.893 101.761C171.27 101.732 171.617 101.587 171.907 101.327C172.746 100.661 172.891 99.4158 172.225 98.5473C169.764 95.4786 167.188 92.4678 164.553 89.5438C163.83 88.7332 162.585 88.6753 161.774 89.3991C160.963 90.1228 160.906 91.3677 161.629 92.1783C164.235 95.0444 166.753 97.9973 169.156 100.979V101.037Z" fill="url(#paint8_linear_887_28805)"></path><path d="M182.444 120C182.849 120.666 183.602 121.013 184.326 120.927C184.615 120.898 184.876 120.811 185.137 120.637C186.063 120.058 186.352 118.842 185.802 117.916C183.747 114.558 181.576 111.228 179.318 108.015C178.681 107.117 177.465 106.915 176.567 107.523C175.67 108.16 175.467 109.375 176.075 110.273C178.275 113.428 180.418 116.671 182.415 119.971L182.444 120Z" fill="url(#paint9_linear_887_28805)"></path><path d="M97.0989 31.961L105.726 0L0 0.897455L97.0989 31.961Z" fill="#513DE8"></path><path d="M0 0.897461L91.9747 39.6617L92.2063 39.7775L96.1724 46.3203L97.0988 31.961L0 0.897461Z" fill="white"></path><path d="M96.1725 46.3211L87.6033 44.9893L92.2063 39.7783L96.1725 46.3211Z" fill="#513DE8"></path><path d="M80.6262 34.885L92.2063 39.7775L68.3803 66.6433L0 0.897461L80.6262 34.885Z" fill="#513DE8"></path><defs><linearGradient id="paint0_linear_887_28805" x1="197.463" y1="150.551" x2="205.673" y2="150.889" gradientUnits="userSpaceOnUse"><stop stop-color="#513DE8"></stop><stop offset="1" stop-color="#8366E3"></stop></linearGradient><linearGradient id="paint1_linear_887_28805" x1="204.388" y1="173.007" x2="211.149" y2="173.231" gradientUnits="userSpaceOnUse"><stop stop-color="#513DE8"></stop><stop offset="1" stop-color="#8366E3"></stop></linearGradient><linearGradient id="paint2_linear_887_28805" x1="210.496" y1="219.311" x2="214.803" y2="219.4" gradientUnits="userSpaceOnUse"><stop stop-color="#513DE8"></stop><stop offset="1" stop-color="#8366E3"></stop></linearGradient><linearGradient id="paint3_linear_887_28805" x1="208.626" y1="195.985" x2="214.126" y2="196.131" gradientUnits="userSpaceOnUse"><stop stop-color="#513DE8"></stop><stop offset="1" stop-color="#8366E3"></stop></linearGradient><linearGradient id="paint4_linear_887_28805" x1="187.902" y1="129.106" x2="197.532" y2="129.588" gradientUnits="userSpaceOnUse"><stop stop-color="#513DE8"></stop><stop offset="1" stop-color="#8366E3"></stop></linearGradient><linearGradient id="paint5_linear_887_28805" x1="105.598" y1="47.765" x2="120.492" y2="49.5291" gradientUnits="userSpaceOnUse"><stop stop-color="#513DE8"></stop><stop offset="1" stop-color="#8366E3"></stop></linearGradient><linearGradient id="paint6_linear_887_28805" x1="125.681" y1="59.8691" x2="139.87" y2="61.2926" gradientUnits="userSpaceOnUse"><stop stop-color="#513DE8"></stop><stop offset="1" stop-color="#8366E3"></stop></linearGradient><linearGradient id="paint7_linear_887_28805" x1="144.386" y1="74.2048" x2="157.646" y2="75.3289" gradientUnits="userSpaceOnUse"><stop stop-color="#513DE8"></stop><stop offset="1" stop-color="#8366E3"></stop></linearGradient><linearGradient id="paint8_linear_887_28805" x1="161.124" y1="90.619" x2="173.307" y2="91.4894" gradientUnits="userSpaceOnUse"><stop stop-color="#513DE8"></stop><stop offset="1" stop-color="#8366E3"></stop></linearGradient><linearGradient id="paint9_linear_887_28805" x1="175.727" y1="109.018" x2="186.693" y2="109.677" gradientUnits="userSpaceOnUse"><stop stop-color="#513DE8"></stop><stop offset="1" stop-color="#8366E3"></stop></linearGradient></defs></svg>